# xmcd CD database file
#
# Track frame offsets:
#	150
#	32662
#	65127
#
# Disc length: 1106 seconds
#
# Revision: 0
# Processed by: cddbd v1.5.1PL2 Copyright (c) Steve Scherf et al.
# Submitted via: CDex 1.51
#
DISCID=24045003
DTITLE=タケカワユキヒデ - ガンダーラ伝説
DYEAR=1994
DGENRE=JPop
TTITLE0=ガンダーラ伝説
TTITLE1=ガンダーラ伝説（オリジナル・カラオケ）
TTITLE2=ガンダーラ伝説（RADIO EDIT）
EXTD=YEAR: 1994
EXTT0=
EXTT1=
EXTT2=
PLAYORDER=
